<svg xmlns="http://www.w3.org/2000/svg" viewBox="0 0 100 100" role="img" aria-hidden="true">
  <defs>
    <linearGradient id="gBlue" x1="0%" y1="0%" x2="100%" y2="100%">
      <stop offset="0%" stop-color="#5eb3ff"/>
      <stop offset="100%" stop-color="#1a3a6e"/>
    </linearGradient>
    <linearGradient id="gGold" x1="0%" y1="0%" x2="100%" y2="0%">
      <stop offset="0%" stop-color="#ffe066"/>
      <stop offset="100%" stop-color="#f59f00"/>
    </linearGradient>
  </defs>
  <!-- Animated-like ring (CSS animates wrapper) -->
  <circle cx="50" cy="50" r="47" fill="none" stroke="url(#gGold)" stroke-width="3" opacity="0.9"/>
  <circle cx="50" cy="50" r="38" fill="url(#gBlue)"/>
  <ellipse cx="42" cy="38" rx="20" ry="16" fill="#fff" opacity="0.14"/>
  <!-- Open book -->
  <path fill="#f1f3f9" d="M22 58h20v28H24c-1.7 0-3-1.3-3-3V61c0-1.7 1.3-3 3-3z"/>
  <path fill="#dde3ef" d="M42 58h20v28H42V58z"/>
  <path fill="#c5ccda" d="M42 58v28" stroke="#1e2d6b" stroke-width="1.2"/>
  <path fill="none" stroke="#7eb8ff" stroke-width="1.3" stroke-linecap="round" d="M26 66h12M26 72h14M58 66h12M58 72h14"/>
  <!-- Q on shield -->
  <text x="50" y="48" text-anchor="middle" font-family="Segoe UI, Arial, sans-serif" font-size="34" font-weight="800" fill="#fff">Q</text>
  <circle cx="62" cy="54" r="5" fill="none" stroke="url(#gGold)" stroke-width="2.2"/>
  <line x1="65" y1="57" x2="72" y2="66" stroke="url(#gGold)" stroke-width="3" stroke-linecap="round"/>
  <!-- Star -->
  <path fill="#ffe066" d="M76 22l2 5h5l-4 3 1.6 5-4.6-3.3-4.6 3.3L73 30l-4-3h5z"/>
</svg>
